<svg width="1126" height="105" viewBox="0 0 1126 105" fill="none" xmlns="http://www.w3.org/2000/svg">
<path d="M0.0600916 53.7394H31.7288C32.2702 55.3634 33.8555 56.7555 36.4849 57.9155C39.1143 58.9982 42.6331 59.8489 47.0412 60.4675C51.5266 61.0089 56.708 61.2796 62.5855 61.2796C68.3856 61.2796 72.9484 61.1249 76.2738 60.8155C79.6766 60.4289 82.0739 59.8102 83.466 58.9595C84.858 58.0315 85.554 56.7941 85.554 55.2474C85.554 53.7781 84.4327 52.6567 82.1899 51.8833C79.9472 51.0327 75.9645 50.4526 70.2417 50.1433C64.5189 49.834 56.476 49.6793 46.1131 49.6793C38.3796 49.6793 31.6901 49.3313 26.0447 48.6353C20.4766 47.8619 15.8751 46.7019 12.2404 45.1552C8.68295 43.5312 6.05356 41.5204 4.35219 39.1231C2.65082 36.6483 1.80013 33.7096 1.80013 30.3069C1.80013 24.4294 3.77218 19.5959 7.71626 15.8065C11.7377 11.9398 17.7698 9.07837 25.8127 7.22233C33.9329 5.28896 44.0638 4.32227 56.2054 4.32227C73.9924 4.32227 87.5647 6.91299 96.9223 12.0944C106.357 17.1986 111.075 24.5841 111.075 34.2509H81.0299C80.6432 31.6989 78.2459 29.7655 73.8378 28.4508C69.4297 27.0588 63.1655 26.3628 55.0453 26.3628C47.0025 26.3628 41.009 26.8268 37.0649 27.7548C33.1982 28.6828 31.2648 30.2682 31.2648 32.5109C31.2648 33.6709 31.8061 34.599 32.8888 35.295C33.9715 35.991 35.8276 36.571 38.457 37.035C41.1637 37.4217 44.9531 37.6924 49.8252 37.847C54.6973 38.0017 60.8841 38.079 68.3856 38.079C76.6605 38.079 83.698 38.5044 89.4981 39.3551C95.2982 40.1284 99.977 41.3271 103.534 42.9511C107.169 44.5752 109.799 46.6632 111.423 49.2153C113.047 51.69 113.859 54.6287 113.859 58.0315C113.859 63.9089 112.003 68.7037 108.291 72.4158C104.578 76.1279 98.701 78.8733 90.6581 80.652C82.6153 82.4307 72.0977 83.3201 59.1054 83.3201C51.7586 83.3201 44.9918 82.8947 38.805 82.044C32.6955 81.1933 27.2434 79.956 22.4486 78.3319C17.6538 76.6306 13.5937 74.5812 10.2683 72.1838C6.94291 69.7091 4.39086 66.9637 2.61215 63.9476C0.910778 60.8542 0.0600916 57.4515 0.0600916 53.7394ZM120.78 24.1587H188.989V41.5591H120.78V24.1587ZM140.964 6.75832H168.805V81H140.964V6.75832ZM301.852 81H274.011V24.1587H301.852V81ZM275.171 51.6513L275.403 57.2195C275.171 58.8435 274.398 60.7382 273.083 62.9036C271.846 65.069 270.106 67.3117 267.863 69.6317C265.62 71.9518 262.875 74.1172 259.627 76.1279C256.379 78.0613 252.667 79.6466 248.491 80.884C244.314 82.1214 239.674 82.74 234.57 82.74C229.466 82.74 224.633 82.1987 220.07 81.116C215.507 80.1106 211.447 78.4093 207.89 76.0119C204.332 73.6145 201.548 70.4051 199.537 66.3837C197.527 62.2849 196.521 57.1808 196.521 51.0713V24.1587H224.362V48.1713C224.362 52.4247 225.058 55.7114 226.45 58.0315C227.919 60.3515 230.201 61.9756 233.294 62.9036C236.388 63.7543 240.37 64.1796 245.242 64.1796C249.805 64.1796 254.02 63.5223 257.887 62.2076C261.831 60.8155 265.272 59.1528 268.211 57.2195C271.227 55.2861 273.547 53.43 275.171 51.6513ZM354.406 82.624C346.054 82.624 338.63 81.464 332.134 79.144C325.638 76.7466 320.495 73.3052 316.706 68.8197C312.993 64.3343 311.137 58.9208 311.137 52.5794C311.137 45.9285 312.993 40.3604 316.706 35.875C320.495 31.3895 325.638 28.0255 332.134 25.7828C338.63 23.54 346.054 22.4187 354.406 22.4187C361.367 22.4187 367.631 23.1534 373.199 24.6227C378.767 26.0148 383.523 28.0641 387.467 30.7709C391.411 33.4003 394.427 36.571 396.515 40.2831C398.603 43.9952 399.647 48.0939 399.647 52.5794C399.647 57.0648 398.603 61.1636 396.515 64.8756C394.427 68.5104 391.411 71.6811 387.467 74.3879C383.523 77.0172 378.767 79.0666 373.199 80.536C367.631 81.928 361.367 82.624 354.406 82.624ZM364.847 64.9916C370.724 64.9916 376.099 64.6436 380.971 63.9476C385.92 63.1743 389.865 61.8982 392.803 60.1195C395.819 58.3408 397.327 55.8274 397.327 52.5794C397.327 49.2539 395.819 46.7019 392.803 44.9232C389.865 43.1445 385.92 41.9071 380.971 41.2111C376.099 40.5151 370.724 40.1671 364.847 40.1671C356.958 40.1671 350.849 41.2111 346.518 43.2991C342.187 45.3099 340.022 48.4033 340.022 52.5794C340.022 55.2861 340.989 57.5675 342.922 59.4235C344.856 61.2796 347.678 62.6716 351.39 63.5996C355.102 64.5276 359.588 64.9916 364.847 64.9916ZM397.327 0.958188H425.168V81H398.951C398.642 79.2213 398.294 76.3599 397.907 72.4158C397.521 68.3944 397.327 63.9089 397.327 58.9595V0.958188ZM434.988 24.1587H464.569L498.442 78.6799L474.429 81L434.988 24.1587ZM541.711 24.1587L485.217 104.201H456.797L481.041 71.3718L512.13 24.1587H541.711Z" fill="#228BE6"/>
<path d="M579.375 6.75832V58.9595H647.005V81H550.375V6.75832H579.375ZM708.582 82.74C696.286 82.74 686.039 81.7347 677.842 79.724C669.721 77.7133 663.612 74.5039 659.513 70.0958C655.492 65.6877 653.481 59.8875 653.481 52.6954C653.481 45.5032 655.492 39.7031 659.513 35.295C663.612 30.8095 669.721 27.5615 677.842 25.5507C686.039 23.4627 696.286 22.4187 708.582 22.4187C720.801 22.4187 730.932 23.4627 738.975 25.5507C747.095 27.5615 753.166 30.8095 757.187 35.295C761.209 39.7031 763.22 45.5032 763.22 52.6954C763.22 59.8875 761.209 65.6877 757.187 70.0958C753.166 74.5039 747.095 77.7133 738.975 79.724C730.932 81.7347 720.801 82.74 708.582 82.74ZM708.582 65.9197C714.305 65.9197 719.1 65.4556 722.967 64.5276C726.833 63.5223 729.772 62.0529 731.783 60.1195C733.794 58.1088 734.799 55.6341 734.799 52.6954C734.799 49.7566 733.794 47.2819 731.783 45.2712C729.849 43.2605 726.949 41.7524 723.083 40.7471C719.216 39.7417 714.382 39.2391 708.582 39.2391C702.86 39.2391 697.987 39.7417 693.966 40.7471C690.022 41.7524 687.006 43.2605 684.918 45.2712C682.907 47.2046 681.902 49.6793 681.902 52.6954C681.902 55.6341 682.907 58.1088 684.918 60.1195C686.928 62.0529 689.906 63.5223 693.85 64.5276C697.871 65.4556 702.782 65.9197 708.582 65.9197ZM847.278 82.624C840.318 82.624 834.054 81.928 828.486 80.536C822.917 79.0666 818.161 77.0172 814.217 74.3879C810.273 71.6811 807.257 68.5104 805.169 64.8756C803.081 61.1636 802.037 57.0648 802.037 52.5794C802.037 48.0939 803.081 43.9952 805.169 40.2831C807.257 36.571 810.273 33.4003 814.217 30.7709C818.161 28.0641 822.917 26.0148 828.486 24.6227C834.054 23.1534 840.318 22.4187 847.278 22.4187C855.63 22.4187 863.054 23.54 869.55 25.7828C876.124 28.0255 881.267 31.3895 884.979 35.875C888.691 40.3604 890.547 45.9285 890.547 52.5794C890.547 58.9208 888.691 64.3343 884.979 68.8197C881.267 73.3052 876.124 76.7466 869.55 79.144C863.054 81.464 855.63 82.624 847.278 82.624ZM836.838 64.9916C842.097 64.9916 846.582 64.5276 850.294 63.5996C854.006 62.6716 856.829 61.2796 858.762 59.4235C860.696 57.5675 861.662 55.2861 861.662 52.5794C861.662 48.4033 859.497 45.3099 855.166 43.2991C850.835 41.2111 844.726 40.1671 836.838 40.1671C830.96 40.1671 825.547 40.5151 820.597 41.2111C815.725 41.9071 811.781 43.1445 808.765 44.9232C805.826 46.7019 804.357 49.2539 804.357 52.5794C804.357 55.8274 805.826 58.3408 808.765 60.1195C811.781 61.8982 815.725 63.1743 820.597 63.9476C825.547 64.6436 830.96 64.9916 836.838 64.9916ZM804.357 0.958188V58.9595C804.357 63.9089 804.164 68.3944 803.777 72.4158C803.468 76.3599 803.12 79.2213 802.733 81H776.516V0.958188H804.357ZM974.609 82.624C967.649 82.624 961.385 81.928 955.817 80.536C950.248 79.0666 945.492 77.0172 941.548 74.3879C937.604 71.6811 934.588 68.5104 932.5 64.8756C930.412 61.1636 929.368 57.0648 929.368 52.5794C929.368 48.0939 930.412 43.9952 932.5 40.2831C934.588 36.571 937.604 33.4003 941.548 30.7709C945.492 28.0641 950.248 26.0148 955.817 24.6227C961.385 23.1534 967.649 22.4187 974.609 22.4187C982.961 22.4187 990.385 23.54 996.881 25.7828C1003.45 28.0255 1008.6 31.3895 1012.31 35.875C1016.02 40.3604 1017.88 45.9285 1017.88 52.5794C1017.88 58.9208 1016.02 64.3343 1012.31 68.8197C1008.6 73.3052 1003.45 76.7466 996.881 79.144C990.385 81.464 982.961 82.624 974.609 82.624ZM964.169 64.9916C969.427 64.9916 973.913 64.5276 977.625 63.5996C981.337 62.6716 984.16 61.2796 986.093 59.4235C988.027 57.5675 988.993 55.2861 988.993 52.5794C988.993 48.4033 986.828 45.3099 982.497 43.2991C978.166 41.2111 972.057 40.1671 964.169 40.1671C958.291 40.1671 952.878 40.5151 947.928 41.2111C943.056 41.9071 939.112 43.1445 936.096 44.9232C933.157 46.7019 931.688 49.2539 931.688 52.5794C931.688 55.8274 933.157 58.3408 936.096 60.1195C939.112 61.8982 943.056 63.1743 947.928 63.9476C952.878 64.6436 958.291 64.9916 964.169 64.9916ZM931.688 0.958188V58.9595C931.688 63.9089 931.495 68.3944 931.108 72.4158C930.799 76.3599 930.451 79.2213 930.064 81H903.847V0.958188H931.688ZM1019.08 24.1587H1048.66L1082.53 78.6799L1058.52 81L1019.08 24.1587ZM1125.8 24.1587L1069.31 104.201H1040.89L1065.13 71.3718L1096.22 24.1587H1125.8Z" fill="#0E2E3D"/>
</svg>
