<svg width="267" height="267" viewBox="0 0 267 267" fill="none" xmlns="http://www.w3.org/2000/svg">
<rect width="267" height="267" rx="50" fill="white"/>
<path d="M15.3051 145.094H48.8849C49.4589 146.816 51.1399 148.292 53.928 149.522C56.716 150.67 60.4471 151.572 65.1212 152.229C69.8773 152.803 75.3715 153.09 81.6036 153.09C87.7537 153.09 92.5918 152.926 96.1179 152.598C99.726 152.188 102.268 151.531 103.744 150.629C105.22 149.645 105.958 148.333 105.958 146.693C105.958 145.135 104.769 143.946 102.391 143.126C100.013 142.224 95.7899 141.609 89.7218 141.281C83.6536 140.953 75.1255 140.789 64.1372 140.789C55.937 140.789 48.8439 140.42 42.8577 139.682C36.9536 138.862 32.0745 137.632 28.2204 135.992C24.4483 134.27 21.6602 132.138 19.8562 129.596C18.0522 126.972 17.1501 123.856 17.1501 120.248C17.1501 114.016 19.2412 108.891 23.4233 104.872C27.6874 100.772 34.0835 97.7383 42.6117 95.7702C51.2219 93.7202 61.9642 92.6952 74.8384 92.6952C93.6989 92.6952 108.09 95.4422 118.012 100.936C128.017 106.348 133.019 114.18 133.019 124.43H101.161C100.751 121.724 98.209 119.674 93.5349 118.28C88.8608 116.804 82.2186 116.066 73.6084 116.066C65.0802 116.066 58.7251 116.558 54.543 117.542C50.4429 118.526 48.3928 120.207 48.3928 122.585C48.3928 123.815 48.9669 124.799 50.1149 125.537C51.2629 126.275 53.231 126.89 56.019 127.382C58.8891 127.792 62.9072 128.079 68.0733 128.243C73.2394 128.407 79.7996 128.489 87.7537 128.489C96.5279 128.489 103.99 128.94 110.14 129.842C116.29 130.662 121.251 131.933 125.024 133.655C128.878 135.377 131.666 137.591 133.388 140.297C135.11 142.921 135.971 146.037 135.971 149.645C135.971 155.878 134.003 160.962 130.067 164.898C126.131 168.834 119.898 171.745 111.37 173.631C102.842 175.517 91.6898 176.46 77.9135 176.46C70.1233 176.46 62.9482 176.009 56.388 175.107C49.9099 174.205 44.1288 172.893 39.0446 171.171C33.9605 169.367 29.6554 167.194 26.1293 164.652C22.6033 162.028 19.8972 159.117 18.0112 155.919C16.2071 152.639 15.3051 149.03 15.3051 145.094Z" fill="#228BE6"/>
<path d="M180.211 95.2782V150.629H251.921V174H149.46V95.2782H180.211Z" fill="#0E2E3D"/>
</svg>
